<?xml version="1.0" encoding="utf-8"?>
<!-- Generator: Adobe Illustrator 22.1.0, SVG Export Plug-In . SVG Version: 6.00 Build 0)  -->
<svg version="1.1" id="Layer_1" xmlns="http://www.w3.org/2000/svg" xmlns:xlink="http://www.w3.org/1999/xlink" x="0px" y="0px"
	 viewBox="0 0 1920 1080" style="enable-background:new 0 0 1920 1080;" xml:space="preserve">
<style type="text/css">
	.st0{fill:#009245;}
	.st1{fill:none;stroke:#231F20;stroke-width:24;stroke-miterlimit:10;}
	.st2{fill:none;stroke:#231F20;stroke-width:30;stroke-miterlimit:10;}
</style>
<g>
	<rect x="1" y="1" class="st0" width="1920" height="1080"/>
</g>
<path class="st1" d="M350.4,172.4C297,280.9,165.8,325.5,57.3,272.1C-39.3,224.5-79.1,107.6-31.5,10.9
	c42.4-86.1,146.6-121.6,232.7-79.1C278-30.4,309.6,62.4,271.8,139.2C238.1,207.6,155.4,235.7,87,202C26,172,1,98.3,31,37.3
	C57.7-17,123.4-39.3,177.7-12.6c48.4,23.8,68.3,82.4,44.5,130.8c-21.2,43.1-73.4,60.9-116.5,39.6C67.2,138.9,51.4,92.4,70.3,54"/>
<circle class="st1" cx="349.4" cy="155.7" r="26.3"/>
<circle class="st1" cx="95" cy="51.1" r="26.3"/>
<path class="st1" d="M406.4-71.9c119.5,18.3,201.5,130,183.2,249.5c-16.3,106.5-115.9,179.6-222.3,163.3
	c-94.9-14.5-160-103.2-145.5-198.1c13-84.6,92-142.6,176.6-129.6c75.4,11.5,127.1,82,115.5,157.3c-10.3,67.1-73.1,113.2-140.2,103
	c-59.8-9.2-100.9-65.1-91.7-124.9c8.2-53.3,58-89.9,111.3-81.8c47.5,7.3,80.1,51.7,72.9,99.2c-6.5,42.3-46.1,71.4-88.4,64.9"/>
<circle class="st1" cx="390.8" cy="-65.9" r="26.3"/>
<circle class="st1" cx="367.5" cy="208.2" r="26.3"/>
<path class="st1" d="M350.4,172.4C297,280.9,165.8,325.5,57.3,272.1C-39.3,224.5-79.1,107.6-31.5,10.9
	c42.4-86.1,146.6-121.6,232.7-79.1C278-30.4,309.6,62.4,271.8,139.2C238.1,207.6,155.4,235.7,87,202C26,172,1,98.3,31,37.3
	C57.7-17,123.4-39.3,177.7-12.6c48.4,23.8,68.3,82.4,44.5,130.8c-21.2,43.1-73.4,60.9-116.5,39.6C67.2,138.9,51.4,92.4,70.3,54"/>
<circle class="st1" cx="349.4" cy="155.7" r="26.3"/>
<circle class="st1" cx="95" cy="51.1" r="26.3"/>
<path class="st1" d="M382.4,394.4C329,502.9,197.8,547.5,89.3,494.1C-7.3,446.5-47.1,329.6,0.5,232.9
	c42.4-86.1,146.6-121.6,232.7-79.1c76.7,37.8,108.3,130.6,70.5,207.4C270.1,429.6,187.4,457.7,119,424C58,394,33,320.3,63,259.3
	c26.7-54.3,92.5-76.7,146.8-49.9c48.4,23.8,68.3,82.4,44.5,130.8c-21.2,43.1-73.4,60.9-116.5,39.6c-38.4-18.9-54.2-65.4-35.3-103.9"
	/>
<circle class="st1" cx="381.4" cy="377.7" r="26.3"/>
<circle class="st1" cx="127" cy="273.1" r="26.3"/>
<path class="st1" d="M780.3-32.8c109,52.3,154.9,183.1,102.6,292c-46.6,97.1-163.1,138-260.2,91.4c-86.5-41.5-123-145.4-81.5-231.9
	c37-77.1,129.5-109.6,206.7-72.6c68.7,33,97.7,115.4,64.7,184.2c-29.4,61.2-102.9,87.1-164.1,57.7c-54.6-26.2-77.6-91.7-51.4-146.3
	c23.3-48.6,81.7-69.1,130.3-45.8c43.3,20.8,61.6,72.8,40.8,116.1c-18.5,38.6-64.9,54.9-103.5,36.4"/>
<circle class="st1" cx="763.6" cy="-31.6" r="26.3"/>
<circle class="st1" cx="661.5" cy="223.8" r="26.3"/>
<path class="st1" d="M804.4,488.4C751,596.9,619.8,641.5,511.3,588.1c-96.6-47.6-136.4-164.5-88.8-261.2
	c42.4-86.1,146.6-121.6,232.7-79.1c76.7,37.8,108.3,130.6,70.5,207.4C692.1,523.6,609.4,551.7,541,518c-60.9-30-86-103.7-56-164.7
	c26.7-54.3,92.5-76.7,146.8-49.9c48.4,23.8,68.3,82.4,44.5,130.8c-21.2,43.1-73.4,60.9-116.5,39.6c-38.4-18.9-54.2-65.4-35.3-103.9"
	/>
<circle class="st1" cx="803.4" cy="471.7" r="26.3"/>
<circle class="st1" cx="549" cy="367.1" r="26.3"/>
<path class="st2" d="M1329.5,282.6c-66.4,134.9-229.6,190.4-364.5,124C844.7,347.4,795.2,201.9,854.4,81.7
	c52.8-107.1,182.4-151.2,289.5-98.4c95.5,47,134.7,162.5,87.7,258c-41.9,85.1-144.8,120.1-229.9,78.2
	c-75.8-37.3-107-129.1-69.7-204.9c33.3-67.6,115-95.3,182.6-62.1c60.2,29.6,85,102.5,55.3,162.7c-26.4,53.6-91.3,75.7-145,49.3
	c-47.8-23.5-67.5-81.4-43.9-129.2"/>
<circle class="st2" cx="1328.2" cy="261.9" r="32.7"/>
<circle class="st2" cx="1011.8" cy="131.7" r="32.7"/>
<path class="st2" d="M976.5,667.3C843,598.1,790.9,433.7,860.2,300.2c61.7-118.9,208.2-165.3,327.1-103.6
	c106,55,147.3,185.5,92.3,291.5c-49,94.5-165.3,131.3-259.8,82.3c-84.2-43.7-117-147.3-73.3-231.5c38.9-75,131.3-104.3,206.3-65.3
	c66.8,34.7,92.9,117,58.2,183.8c-30.9,59.6-104.2,82.8-163.8,51.9c-53.1-27.5-73.8-92.9-46.2-146c24.5-47.3,82.8-65.8,130.1-41.2"/>
<circle class="st2" cx="997.3" cy="666.5" r="32.7"/>
<circle class="st2" cx="1134" cy="352.9" r="32.7"/>
<path class="st2" d="M464.5,638.6C398,773.5,234.8,829,99.9,762.6C-20.3,703.4-69.8,557.9-10.6,437.7
	c52.8-107.1,182.4-151.2,289.5-98.4c95.5,47,134.7,162.5,87.7,258c-41.9,85.1-144.8,120.1-229.9,78.2
	C61,638.1,29.8,546.4,67.1,470.6c33.3-67.6,115-95.3,182.6-62.1c60.2,29.6,85,102.5,55.3,162.7c-26.4,53.6-91.3,75.7-145,49.3
	c-47.8-23.5-67.5-81.4-43.9-129.2"/>
<circle class="st2" cx="463.2" cy="617.9" r="32.7"/>
<circle class="st2" cx="146.8" cy="487.7" r="32.7"/>
<path class="st2" d="M983.5,756.6c-29,147.6-172.1,243.7-319.6,214.7C532.3,945.5,446.7,818,472.5,686.5
	C495.5,569.3,609.2,493,726.3,516c104.4,20.5,172.4,121.8,151.9,226.2c-18.3,93-108.5,153.7-201.6,135.4
	C593.8,861.3,539.8,780.9,556,698c14.5-73.9,86.2-122,160.1-107.5c65.8,12.9,108.7,76.8,95.8,142.6c-11.5,58.7-68.4,96.9-127.1,85.4
	c-52.3-10.3-86.4-61-76.1-113.3"/>
<circle class="st2" cx="976.8" cy="736.9" r="32.7"/>
<circle class="st2" cx="637.5" cy="693.7" r="32.7"/>
<path class="st2" d="M1314.3,248.2c-32.5-146.8,60.1-292.2,206.9-324.7c130.8-29,260.4,53.5,289.4,184.4
	c25.8,116.6-47.7,232-164.3,257.9c-103.9,23-206.8-42.5-229.8-146.4c-20.5-92.6,37.9-184.3,130.5-204.8
	c82.5-18.3,164.2,33.8,182.5,116.3c16.3,73.5-30.1,146.3-103.6,162.6c-65.5,14.5-130.4-26.8-144.9-92.3
	c-12.9-58.4,23.9-116.2,82.3-129.1c52-11.5,103.6,21.3,115.1,73.3"/>
<circle class="st2" cx="1328.3" cy="263.6" r="32.7"/>
<circle class="st2" cx="1656.5" cy="167.3" r="32.7"/>
<path class="st1" d="M2047.8,347.5c-51.3,104.2-177.4,147.1-281.7,95.8c-92.9-45.7-131.1-158.1-85.4-251
	c40.8-82.8,140.9-116.8,223.7-76.1c73.8,36.3,104.1,125.6,67.8,199.3c-32.4,65.7-111.9,92.8-177.6,60.4
	c-58.6-28.8-82.7-99.7-53.8-158.3c25.7-52.2,88.9-73.7,141.1-48c46.5,22.9,65.7,79.2,42.7,125.7c-20.4,41.5-70.6,58.5-112,38.1
	c-36.9-18.2-52.1-62.9-33.9-99.8"/>
<circle class="st1" cx="2046.8" cy="331.5" r="25.3"/>
<circle class="st1" cx="1802.4" cy="230.9" r="25.3"/>
<path class="st2" d="M120.6,924c-5.3-150.3,112.2-276.4,262.5-281.7c133.9-4.7,246.3,100,251,233.9
	c4.2,119.3-89.1,219.5-208.4,223.7c-106.3,3.8-195.6-79.4-199.4-185.8c-3.3-94.8,70.8-174.3,165.5-177.7
	c84.5-3,155.3,63.1,158.3,147.5c2.7,75.3-56.2,138.4-131.4,141.1C351.7,1027.5,295.4,975,293,908c-2.1-59.8,44.6-109.9,104.4-112
	c53.3-1.9,98,39.8,99.8,93"/>
<circle class="st2" cx="131.6" cy="941.7" r="32.7"/>
<circle class="st2" cx="471.9" cy="906.7" r="32.7"/>
<path class="st2" d="M1810.5,505.6c-66.4,134.9-229.6,190.4-364.5,124c-120.2-59.2-169.7-204.6-110.5-324.9
	c52.8-107.1,182.4-151.2,289.5-98.4c95.5,47,134.7,162.5,87.7,258c-41.9,85.1-144.8,120.1-229.9,78.2
	c-75.8-37.3-107-129.1-69.7-204.9c33.3-67.6,115-95.3,182.6-62.1c60.2,29.6,85,102.5,55.3,162.7c-26.4,53.6-91.3,75.7-145,49.3
	c-47.8-23.5-67.5-81.4-43.9-129.2"/>
<circle class="st2" cx="1809.2" cy="484.9" r="32.7"/>
<circle class="st2" cx="1492.8" cy="354.7" r="32.7"/>
<path class="st2" d="M1015.6,851.4c-38.2-145.4,48.6-294.3,194.1-332.6c129.6-34.1,262.3,43.3,296.4,172.9
	c30.4,115.5-38.6,233.7-154.1,264.1c-102.9,27.1-208.3-34.4-235.3-137.3c-24.1-91.7,30.7-185.6,122.4-209.7
	c81.7-21.5,165.4,27.3,186.9,109.1c19.2,72.8-24.4,147.4-97.2,166.5c-64.9,17.1-131.3-21.7-148.4-86.6
	c-15.2-57.8,19.3-117,77.2-132.3c51.5-13.6,104.3,17.2,117.9,68.8"/>
<circle class="st2" cx="1030.2" cy="866.2" r="32.7"/>
<circle class="st2" cx="1354.4" cy="757.2" r="32.7"/>
<path class="st2" d="M1998.3,755.7c-48.5,98.4-167.6,138.9-266,90.5c-87.7-43.2-123.8-149.3-80.6-237.1
	c38.5-78.2,133.1-110.3,211.3-71.8c69.7,34.3,98.3,118.6,64,188.3c-30.6,62.1-105.7,87.6-167.8,57.1
	c-55.3-27.2-78.1-94.2-50.8-149.5c24.3-49.3,83.9-69.6,133.2-45.3c43.9,21.6,62,74.8,40.4,118.7c-19.3,39.1-66.6,55.3-105.8,36
	c-34.9-17.2-49.2-59.4-32.1-94.3"/>
<circle class="st2" cx="1997.4" cy="740.6" r="23.9"/>
<circle class="st2" cx="1766.5" cy="645.6" r="23.9"/>
<path class="st2" d="M1779.3,935.7c-48.5,98.4-167.6,138.9-266,90.5c-87.7-43.2-123.8-149.3-80.6-237.1
	c38.5-78.2,133.1-110.3,211.3-71.8c69.7,34.3,98.3,118.6,64,188.3c-30.6,62.1-105.7,87.6-167.8,57.1
	c-55.3-27.2-78.1-94.2-50.8-149.5c24.3-49.3,83.9-69.6,133.2-45.3c43.9,21.6,62,74.8,40.4,118.7c-19.3,39.1-66.6,55.3-105.8,36
	c-34.9-17.2-49.2-59.4-32.1-94.3"/>
<circle class="st2" cx="1778.4" cy="920.6" r="23.9"/>
<circle class="st2" cx="1547.5" cy="825.6" r="23.9"/>
<path class="st2" d="M1044,765.1c108.6,16,183.6,117.1,167.5,225.6c-14.3,96.7-104.3,163.6-201,149.3c-86.2-12.7-145.8-93-133-179.2
	c11.4-76.8,82.8-129.9,159.7-118.5c68.5,10.1,115.8,73.8,105.6,142.3c-9,61-65.8,103.2-126.8,94.1c-54.4-8-91.9-58.6-83.9-113
	c7.2-48.4,52.2-81.9,100.7-74.8c43.2,6.4,73,46.5,66.6,89.7c-5.7,38.5-41.5,65-80,59.4"/>
<circle class="st2" cx="1029.8" cy="770.6" r="23.9"/>
<circle class="st2" cx="1010" cy="1019.5" r="23.9"/>
</svg>
