<?xml version="1.0" encoding="utf-8"?>
<!-- Generator: Adobe Illustrator 22.1.0, SVG Export Plug-In . SVG Version: 6.00 Build 0)  -->
<svg version="1.1" id="Layer_1" xmlns="http://www.w3.org/2000/svg" xmlns:xlink="http://www.w3.org/1999/xlink" x="0px" y="0px"
	 viewBox="0 0 792 612" style="enable-background:new 0 0 792 612;" xml:space="preserve">
<style type="text/css">
	.st0{fill:#00A651;}
	.st1{fill:none;stroke:#231F20;stroke-width:12;stroke-miterlimit:10;}
	.st2{stroke:#00A651;stroke-width:2;stroke-miterlimit:10;}
	.st3{fill:url(#SVGID_1_);}
	.st4{fill:url(#SVGID_2_);}
	.st5{fill:url(#SVGID_3_);}
	.st6{fill:url(#SVGID_4_);}
	.st7{fill:url(#SVGID_5_);}
	.st8{stroke:#000000;stroke-miterlimit:10;}
	.st9{fill:#FFFFFF;stroke:#FFFFFF;stroke-miterlimit:10;}
	.st10{fill:#FFFFFF;stroke:#000000;stroke-miterlimit:10;}
	.st11{fill:#D1D3D4;stroke:#000000;stroke-miterlimit:10;}
	.st12{fill:#808285;stroke:#000000;stroke-miterlimit:10;}
	.st13{fill:#939598;stroke:#000000;stroke-miterlimit:10;}
	.st14{fill:none;stroke:#000000;stroke-miterlimit:10;}
	.st15{fill:#D1D3D4;}
	.st16{fill:#E6E7E8;}
	.st17{fill:#58595B;}
	.st18{fill:#58595B;stroke:#000000;stroke-miterlimit:10;}
	.st19{fill:#A7A9AC;}
	.st20{fill:#BCBEC0;}
	.st21{fill:#FFFFFF;stroke:#000000;stroke-width:2;stroke-miterlimit:10;}
	.st22{fill:#808285;}
	.st23{fill:#414042;}
	.st24{fill:#BCBEC0;stroke:#000000;stroke-miterlimit:10;}
	.st25{fill:#939598;}
	.st26{fill:none;stroke:#231F20;stroke-width:14;stroke-miterlimit:10;}
	.st27{fill:none;stroke:#231F20;stroke-width:20;stroke-miterlimit:10;}
	.st28{fill:none;stroke:#231F20;stroke-width:13;stroke-miterlimit:10;}
	.st29{fill:none;stroke:#231F20;stroke-width:16;stroke-miterlimit:10;}
	.st30{fill:none;stroke:#231F20;stroke-width:15;stroke-miterlimit:10;}
	.st31{fill:none;stroke:#231F20;stroke-width:22;stroke-miterlimit:10;}
</style>
<rect y="0.8" class="st0" width="792" height="612"/>
<circle class="st1" cx="629" cy="292.6" r="10.8"/>
<circle class="st1" cx="786" cy="228.6" r="10.8"/>
<circle class="st1" cx="207" cy="283.5" r="10.8"/>
<circle class="st1" cx="493.1" cy="247" r="10.8"/>
<circle class="st1" cx="55.9" cy="238.8" r="10.8"/>
<path class="st1" d="M139.6,177.4c-21.9,44.5-75.8,62.8-120.3,40.9c-39.7-19.5-56-67.5-36.5-107.2C0.2,75.7,43,61.2,78.3,78.6
	c31.5,15.5,44.5,53.6,29,85.1c-13.8,28.1-47.8,39.6-75.9,25.8c-25-12.3-35.3-42.6-23-67.6c11-22.3,38-31.5,60.3-20.5
	c19.9,9.8,28,33.8,18.3,53.7c-8.7,17.7-30.1,25-47.8,16.3c-15.8-7.8-22.3-26.9-14.5-42.6"/>
<circle class="st1" cx="609.4" cy="277.9" r="10.8"/>
<path class="st1" d="M297.8,181c-21.9,44.5-75.8,62.8-120.3,40.9c-39.7-19.5-56-67.5-36.5-107.2c17.4-35.4,60.2-49.9,95.5-32.5
	c31.5,15.5,44.5,53.6,29,85.1c-13.8,28.1-47.8,39.6-75.9,25.8c-25-12.3-35.3-42.6-23-67.6c11-22.3,38-31.5,60.3-20.5
	c19.9,9.8,28,33.8,18.3,53.7c-8.7,17.7-30.1,25-47.8,16.3c-15.8-7.8-22.3-26.9-14.5-42.6"/>
<circle class="st1" cx="317.4" cy="235.8" r="13.4"/>
<circle class="st1" cx="228.5" cy="264.4" r="13.4"/>
<path class="st1" d="M185.3,270.7C158,326,91,348.8,35.6,321.6c-49.4-24.3-69.7-84-45.4-133.4c21.7-44,74.9-62.1,118.9-40.4
	c39.2,19.3,55.3,66.7,36,105.9c-17.2,34.9-59.5,49.3-94.4,32.1c-31.1-15.3-43.9-53-28.6-84.1c13.7-27.7,47.2-39.1,75-25.5
	c24.7,12.2,34.9,42.1,22.7,66.8c-10.8,22-37.5,31.1-59.5,20.2c-19.6-9.7-27.7-33.4-18-53"/>
<circle class="st1" cx="184.7" cy="262.1" r="13.4"/>
<circle class="st1" cx="54.9" cy="208.7" r="13.4"/>
<circle class="st1" cx="1.3" cy="223.9" r="13.4"/>
<path class="st1" d="M135.1,212.4C132.9,150.7,181.2,99,242.9,96.8c55-1.9,101.1,41.1,103.1,96c1.7,49-36.6,90.1-85.6,91.8
	c-43.7,1.5-80.3-32.6-81.8-76.3c-1.4-38.9,29.1-71.6,68-72.9c34.7-1.2,63.8,25.9,65,60.6c1.1,30.9-23.1,56.8-54,57.9
	c-27.5,1-50.6-20.6-51.6-48.1c-0.9-24.5,18.3-45.1,42.9-46c21.9-0.8,40.2,16.3,41,38.2"/>
<circle class="st1" cx="139.6" cy="219.7" r="13.4"/>
<path class="st1" d="M769.9,217.1c-27.3,55.4-94.3,78.2-149.7,50.9c-49.4-24.3-69.7-84-45.4-133.4c21.7-44,74.9-62.1,118.9-40.4
	c39.2,19.3,55.3,66.7,36,105.9c-17.2,34.9-59.5,49.3-94.4,32.1c-31.1-15.3-43.9-53-28.6-84.1c13.7-27.7,47.2-39.1,75-25.5
	c24.7,12.2,34.9,42.1,22.7,66.8c-10.8,22-37.5,31.1-59.5,20.2c-19.6-9.7-27.7-33.4-18-53"/>
<circle class="st1" cx="769.4" cy="208.5" r="13.4"/>
<path class="st1" d="M786,294.7c-19.9,40.4-68.8,57-109.2,37.1c-36-17.7-50.8-61.3-33.1-97.3c15.8-32.1,54.6-45.3,86.7-29.5
	c28.6,14.1,40.4,48.7,26.3,77.3c-12.6,25.5-43.4,36-68.9,23.4c-22.7-11.2-32.1-38.7-20.9-61.4c10-20.2,34.5-28.6,54.7-18.6
	c18,8.9,25.5,30.7,16.6,48.7c-7.9,16.1-27.4,22.7-43.4,14.8c-14.3-7.1-20.2-24.4-13.2-38.7"/>
<circle class="st1" cx="785.6" cy="288.5" r="9.8"/>
<circle class="st1" cx="690.9" cy="249.5" r="9.8"/>
<path class="st1" d="M619.6,245.6c-19.9,40.4-68.8,57-109.2,37.1c-36-17.7-50.8-61.3-33.1-97.3c15.8-32.1,54.6-45.3,86.7-29.5
	c28.6,14.1,40.4,48.7,26.3,77.3c-12.6,25.5-43.4,36-68.9,23.4c-22.7-11.2-32.1-38.7-20.9-61.4c10-20.2,34.5-28.6,54.7-18.6
	c18,8.9,25.5,30.7,16.6,48.7c-7.9,16.1-27.4,22.7-43.4,14.8c-14.3-7.1-20.2-24.4-13.2-38.7"/>
<circle class="st1" cx="619.2" cy="239.4" r="9.8"/>
<circle class="st1" cx="524.4" cy="200.4" r="9.8"/>
<g>
	<circle cx="393.4" cy="284" r="43.4"/>
	<circle class="st0" cx="409.3" cy="271.9" r="37.8"/>
	<circle class="st2" cx="413.3" cy="270.1" r="34.5"/>
	
		<linearGradient id="SVGID_1_" gradientUnits="userSpaceOnUse" x1="-239.4678" y1="2118.4321" x2="-181.9678" y2="2118.4321" gradientTransform="matrix(0 1 1 0 -1721.9321 476.0678)">
		<stop  offset="0" style="stop-color:#FFFFFF"/>
		<stop  offset="1" style="stop-color:#000000"/>
	</linearGradient>
	<polygon class="st3" points="403.5,294.1 403.5,236.6 389.5,236.6 389.5,294.1 	"/>
	<g>
		
			<linearGradient id="SVGID_2_" gradientUnits="userSpaceOnUse" x1="-228.1678" y1="2155.4321" x2="-185.2236" y2="2155.4321" gradientTransform="matrix(0 1 1 0 -1721.9321 476.0678)">
			<stop  offset="0" style="stop-color:#FFFFFF"/>
			<stop  offset="1" style="stop-color:#000000"/>
		</linearGradient>
		<polygon class="st4" points="439.3,290.8 439.3,247.9 427.7,247.9 427.7,290.8 		"/>
		<path d="M432.9,250h-1.4c-0.4,0-0.7-0.3-0.7-0.7l0,0c0-0.4,0.3-0.7,0.7-0.7h1.4c0.4,0,0.7,0.3,0.7,0.7l0,0
			C433.7,249.7,433.3,250,432.9,250z"/>
		<path d="M437,250h-1.4c-0.4,0-0.7-0.3-0.7-0.7l0,0c0-0.4,0.3-0.7,0.7-0.7h1.4c0.4,0,0.7,0.3,0.7,0.7l0,0
			C437.7,249.7,437.4,250,437,250z"/>
		<path d="M432.9,251.9h-1.4c-0.4,0-0.7-0.3-0.7-0.7l0,0c0-0.4,0.3-0.7,0.7-0.7h1.4c0.4,0,0.7,0.3,0.7,0.7l0,0
			C433.7,251.6,433.3,251.9,432.9,251.9z"/>
		<path d="M437,251.9h-1.4c-0.4,0-0.7-0.3-0.7-0.7l0,0c0-0.4,0.3-0.7,0.7-0.7h1.4c0.4,0,0.7,0.3,0.7,0.7l0,0
			C437.7,251.6,437.4,251.9,437,251.9z"/>
		<path d="M432.9,253.9h-1.4c-0.4,0-0.7-0.3-0.7-0.7l0,0c0-0.4,0.3-0.7,0.7-0.7h1.4c0.4,0,0.7,0.3,0.7,0.7l0,0
			C433.7,253.5,433.3,253.9,432.9,253.9z"/>
		<path d="M437,253.9h-1.4c-0.4,0-0.7-0.3-0.7-0.7l0,0c0-0.4,0.3-0.7,0.7-0.7h1.4c0.4,0,0.7,0.3,0.7,0.7l0,0
			C437.7,253.5,437.4,253.9,437,253.9z"/>
		<path d="M432.9,255.8h-1.4c-0.4,0-0.7-0.3-0.7-0.7l0,0c0-0.4,0.3-0.7,0.7-0.7h1.4c0.4,0,0.7,0.3,0.7,0.7l0,0
			C433.7,255.5,433.3,255.8,432.9,255.8z"/>
		<path d="M437,255.8h-1.4c-0.4,0-0.7-0.3-0.7-0.7l0,0c0-0.4,0.3-0.7,0.7-0.7h1.4c0.4,0,0.7,0.3,0.7,0.7l0,0
			C437.7,255.5,437.4,255.8,437,255.8z"/>
		<path d="M432.9,257.7h-1.4c-0.4,0-0.7-0.3-0.7-0.7l0,0c0-0.4,0.3-0.7,0.7-0.7h1.4c0.4,0,0.7,0.3,0.7,0.7l0,0
			C433.7,257.4,433.3,257.7,432.9,257.7z"/>
		<path d="M437,257.7h-1.4c-0.4,0-0.7-0.3-0.7-0.7l0,0c0-0.4,0.3-0.7,0.7-0.7h1.4c0.4,0,0.7,0.3,0.7,0.7l0,0
			C437.7,257.4,437.4,257.7,437,257.7z"/>
		<path d="M432.9,259.7h-1.4c-0.4,0-0.7-0.3-0.7-0.7l0,0c0-0.4,0.3-0.7,0.7-0.7h1.4c0.4,0,0.7,0.3,0.7,0.7l0,0
			C433.7,259.3,433.3,259.7,432.9,259.7z"/>
		<path d="M437,259.7h-1.4c-0.4,0-0.7-0.3-0.7-0.7l0,0c0-0.4,0.3-0.7,0.7-0.7h1.4c0.4,0,0.7,0.3,0.7,0.7l0,0
			C437.7,259.3,437.4,259.7,437,259.7z"/>
		<path d="M432.9,261.6h-1.4c-0.4,0-0.7-0.3-0.7-0.7l0,0c0-0.4,0.3-0.7,0.7-0.7h1.4c0.4,0,0.7,0.3,0.7,0.7l0,0
			C433.7,261.3,433.3,261.6,432.9,261.6z"/>
		<path d="M437,261.6h-1.4c-0.4,0-0.7-0.3-0.7-0.7l0,0c0-0.4,0.3-0.7,0.7-0.7h1.4c0.4,0,0.7,0.3,0.7,0.7l0,0
			C437.7,261.3,437.4,261.6,437,261.6z"/>
		<path d="M432.9,263.5h-1.4c-0.4,0-0.7-0.3-0.7-0.7l0,0c0-0.4,0.3-0.7,0.7-0.7h1.4c0.4,0,0.7,0.3,0.7,0.7l0,0
			C433.7,263.2,433.3,263.5,432.9,263.5z"/>
		<path d="M437,263.5h-1.4c-0.4,0-0.7-0.3-0.7-0.7l0,0c0-0.4,0.3-0.7,0.7-0.7h1.4c0.4,0,0.7,0.3,0.7,0.7l0,0
			C437.7,263.2,437.4,263.5,437,263.5z"/>
		<path d="M432.9,265.5h-1.4c-0.4,0-0.7-0.3-0.7-0.7l0,0c0-0.4,0.3-0.7,0.7-0.7h1.4c0.4,0,0.7,0.3,0.7,0.7l0,0
			C433.7,265.2,433.3,265.5,432.9,265.5z"/>
		<path d="M437,265.5h-1.4c-0.4,0-0.7-0.3-0.7-0.7l0,0c0-0.4,0.3-0.7,0.7-0.7h1.4c0.4,0,0.7,0.3,0.7,0.7l0,0
			C437.7,265.2,437.4,265.5,437,265.5z"/>
		<path d="M432.9,267.4h-1.4c-0.4,0-0.7-0.3-0.7-0.7l0,0c0-0.4,0.3-0.7,0.7-0.7h1.4c0.4,0,0.7,0.3,0.7,0.7l0,0
			C433.7,267.1,433.3,267.4,432.9,267.4z"/>
		<path d="M437,267.4h-1.4c-0.4,0-0.7-0.3-0.7-0.7l0,0c0-0.4,0.3-0.7,0.7-0.7h1.4c0.4,0,0.7,0.3,0.7,0.7l0,0
			C437.7,267.1,437.4,267.4,437,267.4z"/>
		<path d="M432.9,269.4h-1.4c-0.4,0-0.7-0.3-0.7-0.7l0,0c0-0.4,0.3-0.7,0.7-0.7h1.4c0.4,0,0.7,0.3,0.7,0.7l0,0
			C433.7,269,433.3,269.4,432.9,269.4z"/>
		<path d="M437,269.4h-1.4c-0.4,0-0.7-0.3-0.7-0.7l0,0c0-0.4,0.3-0.7,0.7-0.7h1.4c0.4,0,0.7,0.3,0.7,0.7l0,0
			C437.7,269,437.4,269.4,437,269.4z"/>
		<path d="M432.9,271.3h-1.4c-0.4,0-0.7-0.3-0.7-0.7l0,0c0-0.4,0.3-0.7,0.7-0.7h1.4c0.4,0,0.7,0.3,0.7,0.7l0,0
			C433.7,271,433.3,271.3,432.9,271.3z"/>
		<path d="M437,271.3h-1.4c-0.4,0-0.7-0.3-0.7-0.7l0,0c0-0.4,0.3-0.7,0.7-0.7h1.4c0.4,0,0.7,0.3,0.7,0.7l0,0
			C437.7,271,437.4,271.3,437,271.3z"/>
		<path d="M432.9,273.2h-1.4c-0.4,0-0.7-0.3-0.7-0.7l0,0c0-0.4,0.3-0.7,0.7-0.7h1.4c0.4,0,0.7,0.3,0.7,0.7l0,0
			C433.7,272.9,433.3,273.2,432.9,273.2z"/>
		<path d="M437,273.2h-1.4c-0.4,0-0.7-0.3-0.7-0.7l0,0c0-0.4,0.3-0.7,0.7-0.7h1.4c0.4,0,0.7,0.3,0.7,0.7l0,0
			C437.7,272.9,437.4,273.2,437,273.2z"/>
		<path d="M432.9,275.2h-1.4c-0.4,0-0.7-0.3-0.7-0.7l0,0c0-0.4,0.3-0.7,0.7-0.7h1.4c0.4,0,0.7,0.3,0.7,0.7l0,0
			C433.7,274.8,433.3,275.2,432.9,275.2z"/>
		<path d="M437,275.2h-1.4c-0.4,0-0.7-0.3-0.7-0.7l0,0c0-0.4,0.3-0.7,0.7-0.7h1.4c0.4,0,0.7,0.3,0.7,0.7l0,0
			C437.7,274.8,437.4,275.2,437,275.2z"/>
		<path d="M432.9,277.1h-1.4c-0.4,0-0.7-0.3-0.7-0.7l0,0c0-0.4,0.3-0.7,0.7-0.7h1.4c0.4,0,0.7,0.3,0.7,0.7l0,0
			C433.7,276.8,433.3,277.1,432.9,277.1z"/>
		<path d="M437,277.1h-1.4c-0.4,0-0.7-0.3-0.7-0.7l0,0c0-0.4,0.3-0.7,0.7-0.7h1.4c0.4,0,0.7,0.3,0.7,0.7l0,0
			C437.7,276.8,437.4,277.1,437,277.1z"/>
		<path d="M432.9,279h-1.4c-0.4,0-0.7-0.3-0.7-0.7l0,0c0-0.4,0.3-0.7,0.7-0.7h1.4c0.4,0,0.7,0.3,0.7,0.7l0,0
			C433.7,278.7,433.3,279,432.9,279z"/>
		<path d="M437,279h-1.4c-0.4,0-0.7-0.3-0.7-0.7l0,0c0-0.4,0.3-0.7,0.7-0.7h1.4c0.4,0,0.7,0.3,0.7,0.7l0,0
			C437.7,278.7,437.4,279,437,279z"/>
		<path d="M432.9,281h-1.4c-0.4,0-0.7-0.3-0.7-0.7l0,0c0-0.4,0.3-0.7,0.7-0.7h1.4c0.4,0,0.7,0.3,0.7,0.7l0,0
			C433.7,280.7,433.3,281,432.9,281z"/>
		<path d="M437,281h-1.4c-0.4,0-0.7-0.3-0.7-0.7l0,0c0-0.4,0.3-0.7,0.7-0.7h1.4c0.4,0,0.7,0.3,0.7,0.7l0,0
			C437.7,280.7,437.4,281,437,281z"/>
		<path d="M432.9,282.9h-1.4c-0.4,0-0.7-0.3-0.7-0.7l0,0c0-0.4,0.3-0.7,0.7-0.7h1.4c0.4,0,0.7,0.3,0.7,0.7l0,0
			C433.7,282.6,433.3,282.9,432.9,282.9z"/>
		<path d="M437,282.9h-1.4c-0.4,0-0.7-0.3-0.7-0.7l0,0c0-0.4,0.3-0.7,0.7-0.7h1.4c0.4,0,0.7,0.3,0.7,0.7l0,0
			C437.7,282.6,437.4,282.9,437,282.9z"/>
		<path d="M432.9,284.9h-1.4c-0.4,0-0.7-0.3-0.7-0.7l0,0c0-0.4,0.3-0.7,0.7-0.7h1.4c0.4,0,0.7,0.3,0.7,0.7l0,0
			C433.7,284.5,433.3,284.9,432.9,284.9z"/>
		<path d="M437,284.9h-1.4c-0.4,0-0.7-0.3-0.7-0.7l0,0c0-0.4,0.3-0.7,0.7-0.7h1.4c0.4,0,0.7,0.3,0.7,0.7l0,0
			C437.7,284.5,437.4,284.9,437,284.9z"/>
		<path d="M432.9,286.8h-1.4c-0.4,0-0.7-0.3-0.7-0.7l0,0c0-0.4,0.3-0.7,0.7-0.7h1.4c0.4,0,0.7,0.3,0.7,0.7l0,0
			C433.7,286.5,433.3,286.8,432.9,286.8z"/>
		<path d="M437,286.8h-1.4c-0.4,0-0.7-0.3-0.7-0.7l0,0c0-0.4,0.3-0.7,0.7-0.7h1.4c0.4,0,0.7,0.3,0.7,0.7l0,0
			C437.7,286.5,437.4,286.8,437,286.8z"/>
		<path d="M432.9,288.7h-1.4c-0.4,0-0.7-0.3-0.7-0.7l0,0c0-0.4,0.3-0.7,0.7-0.7h1.4c0.4,0,0.7,0.3,0.7,0.7l0,0
			C433.7,288.4,433.3,288.7,432.9,288.7z"/>
		<path d="M437,288.7h-1.4c-0.4,0-0.7-0.3-0.7-0.7l0,0c0-0.4,0.3-0.7,0.7-0.7h1.4c0.4,0,0.7,0.3,0.7,0.7l0,0
			C437.7,288.4,437.4,288.7,437,288.7z"/>
		<path d="M432.9,290.7h-1.4c-0.4,0-0.7-0.3-0.7-0.7l0,0c0-0.4,0.3-0.7,0.7-0.7h1.4c0.4,0,0.7,0.3,0.7,0.7l0,0
			C433.7,290.3,433.3,290.7,432.9,290.7z"/>
		<path d="M437,290.7h-1.4c-0.4,0-0.7-0.3-0.7-0.7l0,0c0-0.4,0.3-0.7,0.7-0.7h1.4c0.4,0,0.7,0.3,0.7,0.7l0,0
			C437.7,290.3,437.4,290.7,437,290.7z"/>
		<path d="M432.9,292.6h-1.4c-0.4,0-0.7-0.3-0.7-0.7l0,0c0-0.4,0.3-0.7,0.7-0.7h1.4c0.4,0,0.7,0.3,0.7,0.7l0,0
			C433.7,292.3,433.3,292.6,432.9,292.6z"/>
		<path d="M437,292.6h-1.4c-0.4,0-0.7-0.3-0.7-0.7l0,0c0-0.4,0.3-0.7,0.7-0.7h1.4c0.4,0,0.7,0.3,0.7,0.7l0,0
			C437.7,292.3,437.4,292.6,437,292.6z"/>
		<path d="M432.9,294.5h-1.4c-0.4,0-0.7-0.3-0.7-0.7l0,0c0-0.4,0.3-0.7,0.7-0.7h1.4c0.4,0,0.7,0.3,0.7,0.7l0,0
			C433.7,294.2,433.3,294.5,432.9,294.5z"/>
		<path d="M437,294.5h-1.4c-0.4,0-0.7-0.3-0.7-0.7l0,0c0-0.4,0.3-0.7,0.7-0.7h1.4c0.4,0,0.7,0.3,0.7,0.7l0,0
			C437.7,294.2,437.4,294.5,437,294.5z"/>
	</g>
	<g>
		
			<linearGradient id="SVGID_3_" gradientUnits="userSpaceOnUse" x1="-230.2678" y1="2129.5823" x2="-177.2678" y2="2129.5823" gradientTransform="matrix(0 1 1 0 -1721.9321 476.0678)">
			<stop  offset="0" style="stop-color:#FFFFFF"/>
			<stop  offset="1" style="stop-color:#000000"/>
		</linearGradient>
		<polygon class="st5" points="417.1,298.8 417.1,245.8 398.2,245.8 398.2,298.8 		"/>
		<rect x="399" y="247" width="3.9" height="1.8"/>
		<rect x="403.5" y="247" width="3.9" height="1.8"/>
		<rect x="407.9" y="247" width="3.9" height="1.8"/>
		<rect x="412.3" y="247" width="3.9" height="1.8"/>
		<rect x="399" y="249.4" width="3.9" height="1.8"/>
		<rect x="403.5" y="249.4" width="3.9" height="1.8"/>
		<rect x="407.9" y="249.4" width="3.9" height="1.8"/>
		<rect x="412.3" y="249.4" width="3.9" height="1.8"/>
		<rect x="399" y="251.9" width="3.9" height="1.8"/>
		<rect x="403.5" y="251.9" width="3.9" height="1.8"/>
		<rect x="407.9" y="251.9" width="3.9" height="1.8"/>
		<rect x="412.3" y="251.9" width="3.9" height="1.8"/>
		<rect x="399" y="254.3" width="3.9" height="1.8"/>
		<rect x="403.5" y="254.3" width="3.9" height="1.8"/>
		<rect x="407.9" y="254.3" width="3.9" height="1.8"/>
		<rect x="412.3" y="254.3" width="3.9" height="1.8"/>
		<rect x="399" y="256.7" width="3.9" height="1.8"/>
		<rect x="403.5" y="256.7" width="3.9" height="1.8"/>
		<rect x="407.9" y="256.7" width="3.9" height="1.8"/>
		<rect x="412.3" y="256.7" width="3.9" height="1.8"/>
		<rect x="399" y="259.1" width="3.9" height="1.8"/>
		<rect x="403.5" y="259.1" width="3.9" height="1.8"/>
		<rect x="407.9" y="259.1" width="3.9" height="1.8"/>
		<rect x="412.3" y="259.1" width="3.9" height="1.8"/>
		<rect x="399" y="261.5" width="3.9" height="1.8"/>
		<rect x="403.5" y="261.5" width="3.9" height="1.8"/>
		<rect x="407.9" y="261.5" width="3.9" height="1.8"/>
		<rect x="412.3" y="261.5" width="3.9" height="1.8"/>
		<rect x="399" y="264" width="3.9" height="1.8"/>
		<rect x="403.5" y="264" width="3.9" height="1.8"/>
		<rect x="407.9" y="264" width="3.9" height="1.8"/>
		<rect x="412.3" y="264" width="3.9" height="1.8"/>
		<rect x="399" y="266.4" width="3.9" height="1.8"/>
		<rect x="403.5" y="266.4" width="3.9" height="1.8"/>
		<rect x="407.9" y="266.4" width="3.9" height="1.8"/>
		<rect x="412.3" y="266.4" width="3.9" height="1.8"/>
		<rect x="399" y="268.8" width="3.9" height="1.8"/>
		<rect x="403.5" y="268.8" width="3.9" height="1.8"/>
		<rect x="407.9" y="268.8" width="3.9" height="1.8"/>
		<rect x="412.3" y="268.8" width="3.9" height="1.8"/>
		<rect x="399" y="271.2" width="3.9" height="1.8"/>
		<rect x="403.5" y="271.2" width="3.9" height="1.8"/>
		<rect x="407.9" y="271.2" width="3.9" height="1.8"/>
		<rect x="412.3" y="271.2" width="3.9" height="1.8"/>
		<rect x="399" y="273.6" width="3.9" height="1.8"/>
		<rect x="403.5" y="273.6" width="3.9" height="1.8"/>
		<rect x="407.9" y="273.6" width="3.9" height="1.8"/>
		<rect x="412.3" y="273.6" width="3.9" height="1.8"/>
		<rect x="399" y="276.1" width="3.9" height="1.8"/>
		<rect x="403.5" y="276.1" width="3.9" height="1.8"/>
		<rect x="407.9" y="276.1" width="3.9" height="1.8"/>
		<rect x="412.3" y="276.1" width="3.9" height="1.8"/>
		<rect x="399" y="278.5" width="3.9" height="1.8"/>
		<rect x="403.5" y="278.5" width="3.9" height="1.8"/>
		<rect x="407.9" y="278.5" width="3.9" height="1.8"/>
		<rect x="412.3" y="278.5" width="3.9" height="1.8"/>
		<rect x="399" y="280.9" width="3.9" height="1.8"/>
		<rect x="403.5" y="280.9" width="3.9" height="1.8"/>
		<rect x="407.9" y="280.9" width="3.9" height="1.8"/>
		<rect x="412.3" y="280.9" width="3.9" height="1.8"/>
		<rect x="399" y="283.3" width="3.9" height="1.8"/>
		<rect x="403.5" y="283.3" width="3.9" height="1.8"/>
		<rect x="407.9" y="283.3" width="3.9" height="1.8"/>
		<rect x="412.3" y="283.3" width="3.9" height="1.8"/>
		<rect x="399" y="285.8" width="3.9" height="1.8"/>
		<rect x="403.5" y="285.8" width="3.9" height="1.8"/>
		<rect x="407.9" y="285.8" width="3.9" height="1.8"/>
		<rect x="412.3" y="285.8" width="3.9" height="1.8"/>
		<rect x="399" y="288.2" width="3.9" height="1.8"/>
		<rect x="403.5" y="288.2" width="3.9" height="1.8"/>
		<rect x="407.9" y="288.2" width="3.9" height="1.8"/>
		<rect x="412.3" y="288.2" width="3.9" height="1.8"/>
		<rect x="399" y="290.6" width="3.9" height="1.8"/>
		<rect x="403.5" y="290.6" width="3.9" height="1.8"/>
		<rect x="407.9" y="290.6" width="3.9" height="1.8"/>
		<rect x="412.3" y="290.6" width="3.9" height="1.8"/>
		<rect x="399" y="293" width="3.9" height="1.8"/>
		<rect x="403.5" y="293" width="3.9" height="1.8"/>
		<rect x="407.9" y="293" width="3.9" height="1.8"/>
		<rect x="412.3" y="293" width="3.9" height="1.8"/>
		<rect x="399" y="295.4" width="3.9" height="1.8"/>
		<rect x="403.5" y="295.4" width="3.9" height="1.8"/>
		<rect x="407.9" y="295.4" width="3.9" height="1.8"/>
		<rect x="412.3" y="295.4" width="3.9" height="1.8"/>
		<rect x="399" y="297.9" width="3.9" height="1.8"/>
		<rect x="403.5" y="297.9" width="3.9" height="1.8"/>
		<rect x="407.9" y="297.9" width="3.9" height="1.8"/>
		<rect x="412.3" y="297.9" width="3.9" height="1.8"/>
	</g>
	
		<linearGradient id="SVGID_4_" gradientUnits="userSpaceOnUse" x1="-254.4678" y1="2148.1821" x2="-178.4678" y2="2148.1821" gradientTransform="matrix(0 1 1 0 -1721.9321 476.0678)">
		<stop  offset="0" style="stop-color:#FFFFFF"/>
		<stop  offset="1" style="stop-color:#000000"/>
	</linearGradient>
	<polygon class="st6" points="432.1,297.6 432.1,221.6 420.4,221.6 420.4,297.6 	"/>
	<g>
		
			<linearGradient id="SVGID_5_" gradientUnits="userSpaceOnUse" x1="-222.5678" y1="2141.0322" x2="-176.3678" y2="2141.0322" gradientTransform="matrix(0 1 1 0 -1721.9321 476.0678)">
			<stop  offset="0" style="stop-color:#FFFFFF"/>
			<stop  offset="1" style="stop-color:#000000"/>
		</linearGradient>
		<polygon class="st7" points="424.9,299.7 424.9,253.5 413.3,253.5 413.3,299.7 		"/>
		<rect x="414.6" y="255.8" width="1.6" height="2.6"/>
		<rect x="417.1" y="255.8" width="1.6" height="2.6"/>
		<rect x="419.6" y="255.8" width="1.6" height="2.6"/>
		<rect x="422.1" y="255.8" width="1.6" height="2.6"/>
		<rect x="414.6" y="259.2" width="1.6" height="2.6"/>
		<rect x="417" y="259.2" width="1.6" height="2.6"/>
		<rect x="419.6" y="259.2" width="1.6" height="2.6"/>
		<rect x="422.1" y="259.2" width="1.6" height="2.6"/>
		<rect x="414.6" y="262.6" width="1.6" height="2.6"/>
		<rect x="417" y="262.6" width="1.6" height="2.6"/>
		<rect x="419.6" y="262.6" width="1.6" height="2.6"/>
		<rect x="422.1" y="262.6" width="1.6" height="2.6"/>
		<rect x="414.6" y="266" width="1.6" height="2.6"/>
		<rect x="417" y="266" width="1.6" height="2.6"/>
		<rect x="419.6" y="266" width="1.6" height="2.6"/>
		<rect x="422.1" y="266" width="1.6" height="2.6"/>
		<rect x="414.6" y="269.4" width="1.6" height="2.6"/>
		<rect x="417" y="269.4" width="1.6" height="2.6"/>
		<rect x="419.6" y="269.4" width="1.6" height="2.6"/>
		<rect x="422.1" y="269.4" width="1.6" height="2.6"/>
		<rect x="414.6" y="272.6" width="1.6" height="2.6"/>
		<rect x="417" y="272.6" width="1.6" height="2.6"/>
		<rect x="419.6" y="272.6" width="1.6" height="2.6"/>
		<rect x="422.1" y="272.6" width="1.6" height="2.6"/>
		<rect x="414.6" y="275.8" width="1.6" height="2.6"/>
		<rect x="417" y="275.8" width="1.6" height="2.6"/>
		<rect x="419.6" y="275.8" width="1.6" height="2.6"/>
		<rect x="422.1" y="275.8" width="1.6" height="2.6"/>
		<rect x="414.6" y="279" width="1.6" height="2.6"/>
		<rect x="417" y="279" width="1.6" height="2.6"/>
		<rect x="419.6" y="279" width="1.6" height="2.6"/>
		<rect x="422.1" y="279" width="1.6" height="2.6"/>
		<rect x="414.6" y="282.2" width="1.6" height="2.6"/>
		<rect x="417" y="282.2" width="1.6" height="2.6"/>
		<rect x="419.6" y="282.2" width="1.6" height="2.6"/>
		<rect x="422.1" y="282.2" width="1.6" height="2.6"/>
		<rect x="414.6" y="285.5" width="1.6" height="2.6"/>
		<rect x="417" y="285.5" width="1.6" height="2.6"/>
		<rect x="419.6" y="285.5" width="1.6" height="2.6"/>
		<rect x="422.1" y="285.5" width="1.6" height="2.6"/>
		<rect x="414.6" y="288.7" width="1.6" height="2.6"/>
		<rect x="417" y="288.7" width="1.6" height="2.6"/>
		<rect x="419.6" y="288.7" width="1.6" height="2.6"/>
		<rect x="422.1" y="288.7" width="1.6" height="2.6"/>
		<rect x="414.6" y="291.9" width="1.6" height="2.6"/>
		<rect x="417" y="291.9" width="1.6" height="2.6"/>
		<rect x="419.6" y="291.9" width="1.6" height="2.6"/>
		<rect x="422.1" y="291.9" width="1.6" height="2.6"/>
		<rect x="414.6" y="295.1" width="1.6" height="2.6"/>
		<rect x="417" y="295.1" width="1.6" height="2.6"/>
		<rect x="419.6" y="295.1" width="1.6" height="2.6"/>
		<rect x="422.1" y="295.1" width="1.6" height="2.6"/>
		<rect x="414.6" y="298.3" width="1.6" height="2.6"/>
		<rect x="417" y="298.3" width="1.6" height="2.6"/>
		<rect x="419.6" y="298.3" width="1.6" height="2.6"/>
		<rect x="422.1" y="298.3" width="1.6" height="2.6"/>
	</g>
	<g>
		<polygon class="st8" points="367.6,281.5 367.6,278.5 367.9,274.7 368.7,270.2 369.5,267.7 370.1,266.9 371,266.9 372.4,267.4 
			373.9,268 377.2,270.6 377.8,271.1 379.4,269.9 381.3,268.3 383,266.9 384.3,266 385.4,266 386.3,266.6 387.9,269.1 388.9,271.9 
			390.2,275.3 390.5,276 389.8,279.3 388.6,280.7 385.5,284 381.9,287.1 379.5,288.5 377.9,289.1 375.7,289.1 373.7,288.2 
			371.4,286.5 369.8,285.1 367.9,282.8 		"/>
		<polygon class="st9" points="372,271.6 373.2,272.1 374.2,272.6 374.5,273.2 373.2,273.2 372,272.4 		"/>
		<polygon class="st9" points="379.6,272.4 380.8,271.6 382.2,270.9 381.8,271.6 381.2,272.4 380.4,272.8 379.6,272.8 		"/>
		<polygon class="st10" points="390.5,269.1 388.5,264.9 386.9,260.6 385.9,256.9 382.7,254.1 379.6,252.1 373.9,252.1 370.5,253 
			368.7,254.3 367.6,255.7 366.3,258.4 365.9,260.6 366.2,262 366.7,262.2 367.2,261 367.6,260.6 366.8,263.3 366.3,266 
			365.5,269.7 364.7,273.2 364.7,275.1 364.7,276.6 365.4,278.5 366.6,280.8 367.9,282.8 367.6,281.5 367.6,278.5 367.9,274.7 
			368.7,270.2 369.5,267.7 370.1,266.9 371,266.9 372.4,267.4 373.9,268 377.2,270.6 377.8,271.1 379.4,269.9 381.3,268.3 
			383,266.9 384.3,266 385.4,266 386.3,266.6 387.9,269.1 388.9,271.9 390.2,275.3 390.5,276 390.5,273.9 390.5,270.9 		"/>
		<polygon class="st10" points="364.8,272.4 363.3,273.2 362.2,273.9 362.8,275.7 363.9,278.1 363.9,275.7 364.7,274.6 		"/>
		<polygon class="st11" points="362.2,273.9 361.7,274.8 361.3,276 361.3,277.5 361.3,279.2 362.2,280.7 364.2,282.8 366.8,285.5 
			371.4,289.9 373.4,290.8 368.9,286.3 366.3,282.8 363.9,278.1 362.8,275.7 		"/>
		<polygon class="st11" points="380.1,291.5 381.6,290.8 383.6,289.1 385.4,287.1 387.7,283.8 389.6,280.3 389.8,279.3 388.6,280.7 
			385.5,284 381.9,287.1 379.5,288.5 377.9,289.1 375.7,289.1 373.7,288.2 371.4,286.5 369.8,285.1 367.9,282.8 366.6,280.8 
			365.4,278.5 364.7,276.6 364.7,275.1 364.7,274.6 363.9,275.7 363.9,278.1 366.3,282.8 368.9,286.3 373.9,289.1 376.9,290.8 
			379,291.5 		"/>
		<polygon class="st12" points="376,291.6 379.5,291.6 377.4,290.9 374.4,289.2 369.5,286.5 374,290.9 375,291.6 		"/>
		<polygon class="st10" points="390.5,269.1 390.5,276 389.8,279.7 388.8,284.7 391.1,283 394.3,279.8 396.4,276.9 396.4,275.2 
			393.9,273.4 394.3,275.2 394,277.5 392.6,280 391.5,281.2 393.7,277.1 394,275.1 393.5,273.2 392.6,271.6 391.5,269.8 		"/>
		<polygon class="st8" points="391.1,283 389.5,284.7 387.9,286.3 385.1,288.9 382.2,291 379.9,292.7 378.5,293.8 376.6,293.8 
			372,293.2 369.7,292.3 369.2,291.1 370.6,290.8 371.7,290.4 372,290.2 373.4,290.8 374.5,291.5 372.9,291.5 373.2,291.9 
			374.5,292.6 376.5,293.2 378.1,293.1 379.6,292.1 380.9,291.1 381.6,290.8 383.6,289.1 385.4,287.1 387.7,283.8 389.6,280.3 
			388.8,284.7 		"/>
		<polygon class="st12" points="378.1,293.1 376.5,293.2 374.5,292.6 373.2,291.9 372.9,291.5 374.5,291.5 379,291.5 380.1,291.5 
			379.6,292.1 		"/>
		<polygon class="st13" points="361.3,279.2 361.3,276 361.7,274.8 360.7,274.8 359.7,275.2 358.2,276.6 357.8,278.1 358.4,280.3 
			359.7,283.9 360.4,285.8 361.7,287 363.5,288.3 364.8,289.1 366.4,289.6 366.8,289.6 365.8,287 365.2,284.7 365.3,284 
			364.2,282.8 362.2,280.7 		"/>
		<polyline class="st14" points="360.2,276 360.2,276.9 360.5,278.5 361.3,279.7 362.2,280.7 		"/>
		<polygon class="st15" points="358.8,278.1 360.4,281 362.3,283 364.5,285.4 364.9,286 365.3,288.6 364.3,287.8 360.9,284.4 
			359.6,282.1 358.5,278.9 		"/>
		<polygon class="st12" points="365.2,284.7 365.2,284.7 365.8,287 366.8,289.6 368.7,293.8 374,301.7 378.7,307.6 384.8,313.7 
			390.2,317.8 394,320.3 395.1,320.6 396.5,320.3 400.5,318.9 401.4,317.2 402.8,316.2 405.7,314.8 408.8,313.3 411.1,310.9 
			414.9,306.1 419.1,301.9 412.6,306.5 404.5,312.5 400.5,315.2 399,316.2 398,316.3 396.2,315.9 392,313.8 386,310 381.6,306.5 
			376.5,301.9 371.3,295.1 369.7,292.3 368.2,289.6 365.8,285.5 		"/>
		<polygon class="st16" points="378.9,304.3 380.4,306.4 383,309 386.8,311.8 394,316.7 396.8,317.9 398.5,317.9 400.5,316.4 
			403.4,314.4 400.7,315.7 399.2,316.6 398.2,316.8 396.5,316.4 392.2,314.3 386.2,310.5 381.9,307 		"/>
		<polygon class="st17" points="395.1,320.2 397.4,318.6 398.2,318.2 398.2,317.7 398.5,317.4 400.5,315.9 403.4,313.9 404.2,313.3 
			407.3,310.9 410.8,308.3 407.1,311.5 403.8,314.3 403.4,315.4 402.8,315.7 401.4,316.8 400.5,318.5 396.5,319.8 		"/>
		<polygon class="st18" points="371.7,290.4 370.6,290.8 369.2,291.1 365.8,285.5 365.3,284 366.8,285.5 371.4,289.9 		"/>
		<polygon class="st10" points="378.5,293.8 382.2,291 385.1,288.9 387.9,286.3 391.1,283 394.3,279.8 396.4,276.9 396.4,275.2 
			393.9,273.4 394,272.8 396.9,271.9 397.6,271.9 399.6,274.1 401.9,275.2 404.2,276 406.2,276.5 407,276.9 407.7,278.1 
			407.7,278.9 410.4,279.6 412.4,280.1 412.9,280.3 412.5,281.8 411.2,283.4 407.1,286.3 403.1,288.9 391.1,295.5 384.9,298.1 
			380.9,299.7 377.9,299.7 375.4,299.7 374.8,299.7 371.3,295.1 369.7,292.3 372,293.2 376.6,293.8 		"/>
		<polygon class="st18" points="386.3,293.8 382.2,294 378.5,293.8 376.6,293.8 372,293.2 369.7,292.3 371.3,295.1 373.4,295.1 
			377.3,295.1 380.1,295.1 		"/>
		<polygon class="st17" points="381.3,293.7 384.2,291.1 387,288.2 388.8,286.3 393.4,281.3 391.1,285.2 392,285.8 391.1,288.2 
			386.3,293.8 		"/>
		<polygon class="st8" points="396.4,274.8 396.9,274.6 397.4,274.6 397.4,276.3 397,277.5 396.4,279.2 394.6,283 391.1,288.2 
			386.3,293.8 380.1,295.1 371.3,295.1 372.5,296.6 379.6,296.2 383.6,295.1 387.9,293.8 389.2,292.6 392,289.3 394.3,284.7 
			396.4,280.7 397.4,277.8 397.9,274.1 397.5,273.5 396.4,273.5 395.1,274 395.7,274.5 		"/>
		<polygon class="st19" points="393.4,289.6 397.9,287.8 401.7,284 397.9,288.9 395.3,290.8 389.6,292.8 392,289.3 394.3,284.7 
			397.2,280.3 		"/>
		<polygon class="st19" points="374.5,297.8 380.2,296.9 388.8,294.3 398.5,290.5 391.1,295.2 384.9,297.9 380.9,299.4 377.9,299.4 
			374.8,299.4 374,298.3 		"/>
		<polygon class="st8" points="405.5,278.1 400,286.6 395.3,290.8 389.6,292.8 387.9,293.8 379.6,296.2 372.5,296.6 379.6,296.6 
			385.3,295 392.6,292.3 397.9,289.6 400.5,287 404,282.3 405.5,280.3 406,278.3 		"/>
		<polygon class="st8" points="376.5,301.9 378.5,301.9 381.9,301.1 386.8,299.4 392.9,296.2 399,292.8 403.4,289.6 407.9,286.6 
			410.8,283.6 407.1,286.3 403.1,288.9 391.1,295.5 384.9,298.1 380.9,299.7 377.9,299.7 374.8,299.7 		"/>
		<polygon class="st10" points="414,280.3 414.8,281.3 414.8,282.8 414.4,285.8 412.4,290.5 410.5,293.2 404,297.6 396.9,301.1 
			388.1,303.9 382.2,305.2 380.1,305.1 376.5,301.9 378.5,301.9 381.9,301.1 386.8,299.4 392.9,296.2 399,292.8 403.4,289.6 
			407.9,286.6 410.8,283.6 412.5,281.8 412.9,280.3 		"/>
		<polygon class="st19" points="381.3,304.3 389.8,301.4 397.4,298.5 402.7,296.6 406.4,288.6 393.4,296.6 386.2,300.4 382.6,302.2 
			378,302.6 380.2,304.3 		"/>
		<polygon class="st17" points="403.4,296.3 404.1,297.3 397,300.8 388.1,303.6 382.3,304.9 380.2,304 381.3,304 389.9,301.1 
			397.5,298.2 402.7,296.3 		"/>
		<polygon class="st8" points="384.6,306.4 389.2,305.2 396.7,302.7 401.1,300.2 407.6,296.3 410.5,293.2 404.1,297.3 396.9,301.1 
			388.1,303.9 382.2,305.2 380.1,305.1 386,310 392,313.8 396.2,315.9 398,316.3 399,315.6 396.9,315.3 395.1,314.2 397.9,312.1 
			400.6,310 403,306.8 403,306 399.5,306.8 395.1,307.2 388.1,307.2 385.6,306.9 		"/>
		<polygon class="st20" points="385,308.3 387.3,308.3 390.5,308.3 393.7,308.3 396.9,307.9 401.3,306.8 401.7,306.8 399.8,308.3 
			397.9,309.7 392.6,311.9 390.8,311.9 387.3,310.3 		"/>
		<polygon class="st21" points="403,306 405.1,303.4 407.6,299.4 409.8,295.9 411.8,292.3 412.4,290.5 410.5,293.2 407.6,296.3 
			401.1,300.2 396.7,302.7 389.2,305.2 384.6,306.4 385.6,306.9 388.1,307.2 395.1,307.2 399.5,306.8 		"/>
		<polygon class="st22" points="388.6,306.8 392.8,305.3 399.3,302.8 403.4,300.2 407.8,296.7 410.5,293.3 411.4,292.4 407.1,299.8 
			404.1,302.8 401.1,305.3 399.1,306 395.1,306.5 391.3,306.9 		"/>
		<polygon class="st23" points="402.7,305.8 407.1,299.8 403.8,302.8 400.8,305.3 398.8,306 391,306.9 396.1,306.9 399.8,306.5 		
			"/>
		<polygon class="st10" points="414.8,281.3 416,282.2 417.4,282.8 419.1,283 420.1,283 421,284.3 421,286.5 419.4,289.1 
			413.6,296.3 408.9,301.3 401,309.4 403,306.8 403,306 405.1,303.4 407.6,299.4 409.8,295.9 411.8,292.3 414.4,285.8 414.8,282.8 
					"/>
		<polygon class="st19" points="412.8,293.2 417.7,290.1 419.3,288.6 407.8,301.9 406.8,301.9 413.8,288.9 		"/>
		<polygon class="st23" points="403,307.2 407.9,301.9 407.2,301.9 409.2,297.5 403,306.3 		"/>
		<polygon class="st21" points="419.1,301.9 428.3,292.3 430.4,290.5 429.8,289.9 425.7,288.1 423,285.8 421,284.3 421,286.5 
			419.4,289.1 413.6,296.3 408.9,301.3 400.6,310 395.1,314.2 396.9,315.3 399,315.6 399.8,315.6 404.5,312.5 412.6,306.5 		"/>
		<polygon class="st15" points="419.6,293.8 423.2,296.6 418.7,301.5 411.4,306.9 400,315.1 398.5,315.1 396.9,314.8 396,314.2 
			401,310.2 404.1,307.2 409.2,301.9 413.8,297 417.9,291.6 		"/>
		<polygon class="st8" points="357.8,278.1 356.3,279.5 355.4,280.3 356.6,282.2 359,285.1 360.4,285.8 359.7,283.9 		"/>
		<polygon class="st19" points="357,280.7 359.3,284.7 355.9,280.3 356.9,279.7 		"/>
		<polygon class="st24" points="356.9,279 353.6,279 353.2,280.3 351.8,282.2 350.4,283.4 348.7,284.7 347.2,285.4 346.9,285.8 
			346.9,286.6 347.3,287.3 349.2,288.2 356.3,291.6 360.2,292.7 363,293.2 365.3,293.2 366.8,293.2 368,292.3 366.8,289.6 
			364.8,289.1 363.5,288.3 361.7,287 360.4,285.8 359,285.1 356.6,282.2 355.4,280.3 		"/>
		<polygon class="st16" points="351.2,284.7 348.6,285.8 349,286.5 351.6,288.1 355.9,290.1 360.2,291.6 363.9,292 366,292 
			362.6,289.6 360.8,289.1 357.3,288.3 354.9,287.3 352.9,286.1 		"/>
		<polygon class="st25" points="351.7,283.6 353.7,281.3 355,282.4 357.8,285.1 360.2,287 361.9,288.6 360.2,288.3 356.8,287.3 
			353,285 		"/>
		<polygon class="st8" points="356.3,291.6 358.9,293.2 361.2,293.8 363.1,294.1 363.9,294.1 366,293.7 366.8,293.2 365.3,293.2 
			363,293.2 360.2,292.7 		"/>
		<polygon class="st11" points="347.7,287.5 350.2,290.5 353.3,293.8 355.4,295.7 358.5,296.3 361.6,296.6 362.9,296.6 365.2,295 
			366,293.7 363.9,294.1 363.1,294.1 361.2,293.8 358.9,293.2 356.3,291.6 349.2,288.2 		"/>
		<polygon class="st20" points="354.7,293.2 356.3,292.4 349.7,289.1 353.6,293.2 		"/>
		<polygon class="st8" points="348.6,288.7 349.7,291.5 351.7,293.7 354.4,296.3 355.9,297.1 358.5,297.5 361.2,297.5 362.2,297.5 
			362.9,296.6 358.5,296.3 355.4,295.7 353.3,293.8 350.2,290.5 		"/>
		<polygon class="st11" points="347.3,287.3 346.1,289.6 344.2,293.2 343.5,295.1 343.5,296.6 344.1,298.9 345.4,300 347.3,300.6 
			349.7,300.9 352.1,300.6 356.3,300 359.3,299.1 360.2,298.9 361.2,298.3 362.9,296.6 361.2,297.5 358.5,297.5 355.9,297.1 
			354.4,296.3 351.7,293.7 349.7,291.5 348.6,288.7 		"/>
		<polygon class="st20" points="346.9,289.1 346.9,291.5 347.9,293.8 349.7,296.3 350.2,297.5 351.1,298.1 351.1,297 351.7,296.5 
			352.9,296.6 350.6,294.1 348.9,292.3 348.3,290.5 347.9,288.7 		"/>
		<polygon class="st22" points="351.1,298.1 351.1,297.1 351.6,296.6 352.7,296.8 354.3,297.4 355.9,297.5 357,297.5 357.9,297.5 
			357.9,298.1 355.4,298.4 352.7,298.4 		"/>
		<polygon class="st8" points="357.8,300.6 359.8,299 356.3,300 352.1,300.6 349.7,300.9 347.3,300.6 345.4,300 346.2,300.6 
			348.6,301.9 351.7,301.5 355.4,300.9 		"/>
		<polygon class="st11" points="346.8,288.3 345.4,289.6 343,292.7 341,296.6 341,298.1 341.8,300 343.5,304.3 344.1,307.5 
			344.1,308.7 346.6,307.6 349.9,305.9 354.5,303 356.3,301.9 357.8,300.6 351.7,301.5 348.6,301.9 345.4,300 344.1,298.9 
			343.5,296.6 343.5,295.1 344.2,293.2 346.1,289.6 		"/>
		<polyline class="st14" points="343.5,300.9 343.5,302.3 343.8,303.4 343.5,304.3 		"/>
		<polygon class="st25" points="344.6,306.4 350.4,304.3 355.4,301.9 351.1,304.7 344.6,307.9 		"/>
	</g>
	<g>
		<path d="M351.2,333.7l1.1,1.3l0.8-0.8l0.2,0.2c-0.4,0.4-0.6,0.6-0.7,0.8c-0.1,0.2-0.2,0.6-0.2,1v4c0,0.4,0.1,0.6,0.2,0.8
			c0.1,0.1,0.2,0.2,0.2,0.2c0.1,0,0.3-0.1,0.6-0.3l0.2,0.3l-1.8,1.5c-0.5-0.4-0.8-0.7-0.9-0.9c-0.1-0.3-0.2-0.7-0.2-1.3v-4.6
			l-0.7-0.8l-1.4,1.2v4.7l0.6,0.6l-1.5,1.2l-1.5-1.2l0.6-0.6v-4.3c0-0.6-0.1-1-0.2-1.2c-0.1-0.1-0.2-0.2-0.3-0.2
			c-0.1,0-0.3,0.1-0.5,0.3l-0.2-0.3l1.8-1.5c0.5,0.4,0.8,0.7,0.9,0.9c0.1,0.2,0.2,0.5,0.2,0.9v0.3L351.2,333.7z"/>
		<path d="M356.4,333.7l1.5,1.2l-0.7,0.6v4.6c0,0.5,0,0.8,0.1,0.9s0.2,0.2,0.3,0.2c0.1,0,0.1,0,0.2,0s0.2-0.2,0.4-0.3l0.2,0.3
			l-1.8,1.5c-0.5-0.3-0.7-0.6-0.9-0.9c-0.1-0.3-0.2-0.8-0.2-1.5v-4.7l-0.6-0.6L356.4,333.7z M357,330.8h1.1l-1.2,1.8h-0.3L357,330.8
			z"/>
		<path d="M363.3,333.7l2.6,1.2l1.6-0.8v1.9l-1.5-0.3v3.8c0,0.6,0,1,0.1,1.3s0.3,0.6,0.6,1c0.5,0.6,0.7,1.1,0.7,1.3
			c0,0.3-0.1,0.5-0.4,0.8c-0.3,0.2-0.9,0.6-2,1.1c-0.4-0.1-0.7-0.2-1.1-0.3c-0.3-0.1-0.7-0.1-1-0.1c-0.7,0-1.6,0.1-2.6,0.4l-0.1-0.3
			l2-2.3l-2-1.4v-6.1C361.4,334.7,362.4,334.3,363.3,333.7z M361.7,343.5c0.7-0.1,1.3-0.2,1.8-0.2c0.4,0,0.8,0.1,1.2,0.2
			c0.4,0.1,0.8,0.3,1.3,0.5l0.3-0.2c-0.8-0.7-1.3-1.3-1.5-1.7c-0.3-0.4-0.4-0.9-0.5-1.4"/>
		<path d="M371.7,330.6l0.1,0.2c-0.4,0.3-0.7,0.5-0.8,0.8c-0.1,0.3-0.2,0.8-0.2,1.4v2.7l2.6-2.1c0.6,0.4,0.9,0.7,1.1,1
			s0.3,0.9,0.3,1.7v3.8c0,0.7-0.1,1.3-0.2,1.6c-0.2,0.6-0.7,1.1-1.3,1.6c-0.9,0.6-1.9,1.2-3.3,1.7l-0.1-0.3c1.1-0.4,1.8-0.8,2.2-1.2
			c0.4-0.4,0.7-0.8,0.8-1.2c0.1-0.3,0.1-1.1,0.1-2.4v-3.5c0-0.4,0-0.7-0.1-0.8c-0.1-0.2-0.3-0.4-0.6-0.6l-1.4,1.2v4.7l0.6,0.6
			l-1.5,1.2l-1.5-1.2l0.7-0.7v-7.7c0-0.7-0.1-1.2-0.2-1.4c-0.1-0.3-0.4-0.5-0.7-0.7l0.1-0.2c0.3,0.1,0.5,0.2,0.7,0.3
			c0.2,0.1,0.4,0.3,0.7,0.5c0.3-0.3,0.7-0.6,1-0.7C371,330.7,371.3,330.6,371.7,330.6z"/>
		<path d="M375.9,334.6l2.3-2.9h0.2l-0.1,2.3h1.7v0.9h-1.7v5.7l0.9,0.7l0.5-0.4l0.2,0.3l-1.9,1.5c-0.6-0.6-1.3-1.1-2.1-1.3v-0.2
			c0.2-0.2,0.4-0.3,0.4-0.5c0.1-0.2,0.1-0.5,0.1-0.9V335h-0.8v-0.4H375.9z"/>
		<path d="M382.6,333.7l1.5,1.2l-0.7,0.6v4.6c0,0.5,0,0.8,0.1,0.9s0.2,0.2,0.3,0.2c0.1,0,0.1,0,0.2,0s0.2-0.2,0.4-0.3l0.2,0.3
			l-1.8,1.5c-0.5-0.3-0.7-0.6-0.9-0.9c-0.1-0.3-0.2-0.8-0.2-1.5v-4.7l-0.6-0.6L382.6,333.7z M383.2,330.8h1.1l-1.2,1.8h-0.3
			L383.2,330.8z"/>
		<path d="M391.1,333.7l1.1,1.3l0.8-0.8l0.2,0.2c-0.4,0.4-0.6,0.6-0.7,0.8c-0.1,0.2-0.2,0.6-0.2,1v4c0,0.4,0.1,0.6,0.2,0.8
			c0.1,0.1,0.2,0.2,0.2,0.2c0.1,0,0.3-0.1,0.6-0.3l0.2,0.3l-1.8,1.5c-0.5-0.4-0.8-0.7-0.9-0.9c-0.1-0.3-0.2-0.7-0.2-1.3v-4.6
			l-0.7-0.8l-1.4,1.2v4.7l0.6,0.6l-1.5,1.2l-1.5-1.2l0.6-0.6v-4.3c0-0.6-0.1-1-0.2-1.2c-0.1-0.1-0.2-0.2-0.3-0.2
			c-0.1,0-0.3,0.1-0.5,0.3l-0.2-0.3l1.8-1.5c0.5,0.4,0.8,0.7,0.9,0.9c0.1,0.2,0.2,0.5,0.2,0.9v0.3L391.1,333.7z"/>
		<path d="M398.3,333.7l2.6,1.2l1.6-0.8v1.9l-1.5-0.3v3.8c0,0.6,0,1,0.1,1.3s0.3,0.6,0.6,1c0.5,0.6,0.7,1.1,0.7,1.3
			c0,0.3-0.1,0.5-0.4,0.8c-0.3,0.2-0.9,0.6-2,1.1c-0.4-0.1-0.7-0.2-1.1-0.3c-0.3-0.1-0.7-0.1-1-0.1c-0.7,0-1.6,0.1-2.6,0.4l-0.1-0.3
			l2-2.3l-2-1.4v-6.1C396.4,334.7,397.4,334.3,398.3,333.7z M396.7,343.5c0.7-0.1,1.3-0.2,1.8-0.2c0.4,0,0.8,0.1,1.2,0.2
			c0.4,0.1,0.8,0.3,1.3,0.5l0.3-0.2c-0.8-0.7-1.3-1.3-1.5-1.7c-0.3-0.4-0.4-0.9-0.5-1.4L396.7,343.5z"/>
		<path d="M409.4,334l0.3,0.1c-0.3,0.5-0.5,0.8-0.6,1.1c-0.1,0.2-0.1,0.6-0.1,1v3.6c0,0.6,0,1,0.1,1.1s0.2,0.2,0.3,0.2
			c0.1,0,0.1,0,0.2,0c0,0,0.2-0.1,0.4-0.3l0.2,0.3l-1.8,1.5c-0.4-0.3-0.7-0.6-0.9-0.9c-0.1-0.3-0.2-0.6-0.2-1.1l-2.6,2
			c-1-0.8-1.4-1.6-1.4-2.3c0-0.5,0.1-1,0.3-1.4c0.3-0.6,0.8-1.3,1.4-2.1l-1-2.2l0.1-0.2c0.2,0,0.4,0,0.5,0c0.7,0,1.2-0.3,1.7-0.8
			c0.4,0.2,0.9,0.4,1.3,0.6c0.5,0.1,0.9,0.2,1.1,0.2c0.1,0,0.2,0,0.3-0.1C409.2,334.4,409.3,334.2,409.4,334z M405.4,336.9l1.9,0.9
			v-2.2 M407.3,338.1l-2-1c-0.3,0.7-0.5,1.3-0.5,1.8c0,0.9,0.4,1.7,1.2,2.3l1.3-1V338.1z"/>
		<path d="M414.8,330.6v0.2c-0.4,0.2-0.8,0.5-0.9,0.8c-0.2,0.3-0.3,0.8-0.3,1.5v7.5l1,0.7l0.4-0.3l0.2,0.3l-1.7,1.3
			c-0.5-0.4-0.9-0.7-1.1-0.9c-0.3-0.1-0.6-0.3-1-0.4v-0.2c0.2-0.1,0.3-0.2,0.4-0.4c0.1-0.1,0.1-0.3,0.2-0.5c0-0.1,0-0.4,0-1v-6
			c0-0.5,0-0.9-0.1-1.1c0-0.2-0.1-0.4-0.2-0.6s-0.3-0.4-0.6-0.6l0.1-0.2c0.5,0.1,1,0.4,1.4,0.9c0.4-0.4,0.8-0.7,1.1-0.9
			C413.9,330.7,414.3,330.6,414.8,330.6z"/>
		<path d="M419,342.7c-0.6-0.3-1-0.5-1.4-0.6s-0.9-0.3-1.5-0.4v-0.2c0.2-0.1,0.3-0.3,0.4-0.4c0.1-0.2,0.1-0.5,0.1-1.1v-4.8
			c0.5-0.2,1-0.4,1.3-0.5s0.8-0.4,1.8-0.9l2.4,2.8l-3.8,2.6v1.5l2,0.8 M418.3,334.6l-0.1,0.1v3.8l2.2-1.6L418.3,334.6z"/>
		<path d="M428.8,333.7l1.5,1.2l-0.7,0.6v4.6c0,0.5,0,0.8,0.1,0.9s0.2,0.2,0.3,0.2c0.1,0,0.1,0,0.2,0s0.2-0.2,0.4-0.3l0.2,0.3
			l-1.8,1.5c-0.5-0.3-0.7-0.6-0.9-0.9c-0.1-0.3-0.2-0.8-0.2-1.5v-4.7l-0.6-0.6L428.8,333.7z M429.4,330.8h1.1l-1.2,1.8H429
			L429.4,330.8z"/>
		<path d="M437.3,333.7l1.1,1.3l0.8-0.8l0.2,0.2c-0.4,0.4-0.6,0.6-0.7,0.8c-0.1,0.2-0.2,0.6-0.2,1v4c0,0.4,0.1,0.6,0.2,0.8
			c0.1,0.1,0.2,0.2,0.2,0.2c0.1,0,0.3-0.1,0.6-0.3l0.2,0.3l-1.8,1.5c-0.5-0.4-0.8-0.7-0.9-0.9c-0.1-0.3-0.2-0.7-0.2-1.3v-4.6
			l-0.7-0.8l-1.4,1.2v4.7l0.6,0.6l-1.5,1.2l-1.5-1.2l0.6-0.6v-4.3c0-0.6-0.1-1-0.2-1.2c-0.1-0.1-0.2-0.2-0.3-0.2
			c-0.1,0-0.3,0.1-0.5,0.3l-0.2-0.3l1.8-1.5c0.5,0.4,0.8,0.7,0.9,0.9c0.1,0.2,0.2,0.5,0.2,0.9v0.3L437.3,333.7z"/>
		<path d="M446.1,333.7l1.1,1.3l0.8-0.8l0.2,0.2c-0.4,0.4-0.6,0.6-0.7,0.8c-0.1,0.2-0.2,0.6-0.2,1v4c0,0.4,0.1,0.6,0.2,0.8
			c0.1,0.1,0.2,0.2,0.2,0.2c0.1,0,0.3-0.1,0.6-0.3l0.2,0.3l-1.8,1.5c-0.5-0.4-0.8-0.7-0.9-0.9c-0.1-0.3-0.2-0.7-0.2-1.3v-4.6
			L445,335l-1.4,1.2v4.7l0.6,0.6l-1.5,1.2l-1.5-1.2l0.6-0.6v-4.3c0-0.6-0.1-1-0.2-1.2c-0.1-0.1-0.2-0.2-0.3-0.2
			c-0.1,0-0.3,0.1-0.5,0.3l-0.2-0.3l1.8-1.5c0.5,0.4,0.8,0.7,0.9,0.9c0.1,0.2,0.2,0.5,0.2,0.9v0.3L446.1,333.7z"/>
	</g>
	<polygon class="st0" points="364.1,338 364.1,336.3 362.7,335.5 361.2,336.3 361.2,338 362.7,338.9 	"/>
	<polygon class="st0" points="399.1,338.1 399.1,336.3 397.6,335.5 396.1,336.3 396.1,338.1 397.6,338.9 	"/>
</g>
<circle class="st26" cx="353.7" cy="160.3" r="10.8"/>
<circle class="st27" cx="61.7" cy="50.2" r="13.4"/>
<circle class="st27" cx="123.8" cy="-5.4" r="13.4"/>
<path class="st28" d="M167-11.7c27.3-55.3,94.3-78.1,149.7-50.9c49.4,24.3,69.7,84,45.4,133.4c-21.7,44-74.9,62.1-118.9,40.4
	c-39.2-19.3-55.3-66.7-36-105.9c17.2-34.9,59.5-49.3,94.4-32.1c31.1,15.3,43.9,53,28.6,84.1c-13.7,27.7-47.2,39.1-75,25.5
	c-24.7-12.2-34.9-42.1-22.7-66.8C243.3-6,270-15.1,292-4.2c19.6,9.7,27.7,33.4,18,53"/>
<circle class="st27" cx="167.6" cy="-3.1" r="13.4"/>
<circle class="st27" cx="297.4" cy="50.3" r="13.4"/>
<circle class="st27" cx="351" cy="35.1" r="13.4"/>
<path class="st29" d="M217.2,46.6c2.2,61.7-46.1,113.4-107.8,115.6c-55,1.9-101.1-41.1-103.1-96c-1.7-49,36.6-90.1,85.6-91.8
	c43.7-1.5,80.3,32.6,81.8,76.3c1.4,38.9-29.1,71.6-68,72.9C71,124.8,41.9,97.7,40.7,63c-1.1-30.9,23.1-56.8,54-57.9
	c27.5-1,50.6,20.6,51.6,48.1c0.9,24.5-18.3,45.1-42.9,46C81.5,100,63.2,82.9,62.4,61"/>
<circle class="st27" cx="212.7" cy="39.3" r="13.4"/>
<circle class="st27" cx="603.1" cy="5.5" r="10.8"/>
<circle class="st30" cx="754.2" cy="50.2" r="10.8"/>
<path class="st28" d="M670.5,111.6c21.9-44.5,75.8-62.8,120.3-40.9c39.7,19.5,56,67.5,36.5,107.2c-17.4,35.4-60.2,49.9-95.5,32.5
	c-31.5-15.5-44.5-53.6-29-85.1c13.8-28.1,47.8-39.6,75.9-25.8c25,12.3,35.3,42.6,23,67.6c-11,22.3-38,31.5-60.3,20.5
	c-19.9-9.8-28-33.8-18.3-53.7c8.7-17.7,30.1-25,47.8-16.3c15.8,7.8,22.3,26.9,14.5,42.6"/>
<circle class="st27" cx="492.7" cy="53.2" r="13.4"/>
<circle class="st27" cx="581.6" cy="28.6" r="13.4"/>
<path class="st30" d="M528.9,70c27.3-55.3,94.3-78.1,149.7-50.9c49.4,24.3,69.7,84,45.4,133.4c-21.7,44-74.9,62.1-118.9,40.4
	c-39.2-19.3-55.3-66.7-36-105.9c17.2-34.9,59.5-49.3,94.4-32.1c31.1,15.3,43.9,53,28.6,84.1c-13.7,27.7-47.2,39.1-75,25.5
	c-24.7-12.2-34.9-42.1-22.7-66.8c10.8-22,37.5-31.1,59.5-20.2c19.6,9.7,27.7,33.4,18,53"/>
<circle class="st27" cx="534.5" cy="76.6" r="13.4"/>
<circle class="st27" cx="664.3" cy="130" r="13.4"/>
<circle class="st27" cx="780" cy="20.9" r="13.4"/>
<circle class="st27" cx="670.5" cy="69.3" r="13.4"/>
<ellipse transform="matrix(0.3827 -0.9239 0.9239 0.3827 207.4711 537.7026)" class="st1" cx="506.1" cy="113.6" rx="10.8" ry="10.8"/>
<circle class="st1" cx="618.2" cy="163.1" r="10.8"/>
<circle class="st1" cx="781.8" cy="164.1" r="10.8"/>
<ellipse transform="matrix(0.3092 -0.951 0.951 0.3092 21.3657 404.8037)" class="st27" cx="289.3" cy="187.7" rx="10.8" ry="10.8"/>
<circle class="st29" cx="465.7" cy="135.4" r="10.8"/>
<path class="st1" d="M404.3,51.7c44.5,21.9,62.8,75.8,40.9,120.3c-19.5,39.7-67.5,56-107.2,36.5c-35.4-17.4-49.9-60.2-32.5-95.5
	c15.5-31.5,53.6-44.5,85.1-29c28.1,13.8,39.6,47.8,25.8,75.9c-12.3,25-42.6,35.3-67.6,23c-22.3-11-31.5-38-20.5-60.3
	c9.8-19.9,33.8-28,53.7-18.3c17.7,8.7,25,30.1,16.3,47.8c-7.8,15.8-26.9,22.3-42.6,14.5"/>
<circle class="st27" cx="394" cy="13.2" r="13.4"/>
<path class="st1" d="M497.6,6c55.3,27.3,78.1,94.3,50.9,149.7c-24.3,49.4-84,69.7-133.4,45.4c-44-21.7-62.1-74.9-40.4-118.9
	c19.3-39.2,66.7-55.3,105.9-36c34.9,17.2,49.3,59.5,32.1,94.4c-15.3,31.1-53,43.9-84.1,28.6c-27.7-13.7-39.1-47.2-25.5-75
	c12.2-24.7,42.1-34.9,66.8-22.7c22,10.8,31.1,37.5,20.2,59.5c-9.7,19.6-33.4,27.7-53,18"/>
<circle class="st27" cx="489" cy="6.6" r="13.4"/>
<circle class="st27" cx="435.6" cy="136.4" r="13.4"/>
<circle class="st31" cx="452.8" cy="191" r="13.4"/>
<circle class="st27" cx="446.6" cy="51.7" r="13.4"/>
</svg>
