<?xml version="1.0" encoding="utf-8"?>
<!-- Generator: Adobe Illustrator 22.1.0, SVG Export Plug-In . SVG Version: 6.00 Build 0)  -->
<svg version="1.1" id="Layer_1" xmlns="http://www.w3.org/2000/svg" xmlns:xlink="http://www.w3.org/1999/xlink" x="0px" y="0px"
	 viewBox="0 0 432 432" style="enable-background:new 0 0 432 432;" xml:space="preserve">
<style type="text/css">
	.st0{fill:#010101;}
</style>
<image style="overflow:visible;enable-background:new    ;" width="1371" height="650" xlink:href="9A93F6F4.jpeg"  transform="matrix(0.6644 0 0 0.6644 -78.8512 0.4517)">
</image>
<circle class="st0" cx="232.9" cy="206.2" r="6"/>
<circle class="st0" cx="26" cy="378.2" r="6"/>
<circle class="st0" cx="206.4" cy="141.1" r="6"/>
<circle class="st0" cx="277.2" cy="130.3" r="6"/>
<circle class="st0" cx="265.2" cy="163" r="6"/>
<circle class="st0" cx="394.1" cy="132.6" r="6"/>
<circle class="st0" cx="376.6" cy="61.7" r="6"/>
<circle class="st0" cx="112.6" cy="374.9" r="6"/>
<circle class="st0" cx="331.3" cy="291.4" r="6"/>
<circle class="st0" cx="379.7" cy="368.9" r="6"/>
<circle class="st0" cx="131.6" cy="92.8" r="6"/>
<circle class="st0" cx="326.5" cy="186" r="6"/>
<circle class="st0" cx="238.9" cy="323.1" r="6"/>
<circle class="st0" cx="411.3" cy="254" r="6"/>
<circle class="st0" cx="406.7" cy="188.3" r="6"/>
<circle class="st0" cx="479.3" cy="239.6" r="6"/>
<circle class="st0" cx="597.9" cy="293.7" r="6"/>
<circle class="st0" cx="656.6" cy="356.9" r="6"/>
<circle class="st0" cx="557" cy="385.8" r="6"/>
</svg>
